<mxfile host="65bd71144e">
    <diagram id="hYMpLJ98EZ7_7O2Fd1zC" name="Page-1">
        <mxGraphModel dx="1279" dy="971" grid="1" gridSize="10" guides="1" tooltips="1" connect="1" arrows="1" fold="1" page="1" pageScale="1" pageWidth="850" pageHeight="1100" math="0" shadow="0">
            <root>
                <mxCell id="0"/>
                <mxCell id="1" parent="0"/>
                <mxCell id="8" value="Frontend" style="rounded=0;whiteSpace=wrap;html=1;" vertex="1" parent="1">
                    <mxGeometry x="250" y="210" width="120" height="260" as="geometry"/>
                </mxCell>
                <mxCell id="9" value="Backend" style="rounded=0;whiteSpace=wrap;html=1;" vertex="1" parent="1">
                    <mxGeometry x="570" y="210" width="120" height="470" as="geometry"/>
                </mxCell>
                <mxCell id="10" value="S3 File Storage" style="rounded=0;whiteSpace=wrap;html=1;" vertex="1" parent="1">
                    <mxGeometry x="1000" y="190" width="120" height="100" as="geometry"/>
                </mxCell>
                <mxCell id="11" value="MySQL Database" style="rounded=0;whiteSpace=wrap;html=1;" vertex="1" parent="1">
                    <mxGeometry x="990" y="510" width="120" height="180" as="geometry"/>
                </mxCell>
                <mxCell id="12" value="" style="ellipse;whiteSpace=wrap;html=1;aspect=fixed;" vertex="1" parent="1">
                    <mxGeometry y="250" width="80" height="80" as="geometry"/>
                </mxCell>
                <mxCell id="13" value="" style="shape=flexArrow;endArrow=classic;html=1;" edge="1" parent="1">
                    <mxGeometry width="50" height="50" relative="1" as="geometry">
                        <mxPoint x="90" y="280" as="sourcePoint"/>
                        <mxPoint x="230" y="280" as="targetPoint"/>
                    </mxGeometry>
                </mxCell>
                <mxCell id="14" value="1. User uploads file to frontend" style="edgeLabel;html=1;align=center;verticalAlign=middle;resizable=0;points=[];" vertex="1" connectable="0" parent="13">
                    <mxGeometry x="0.1969" relative="1" as="geometry">
                        <mxPoint x="-24" y="-30" as="offset"/>
                    </mxGeometry>
                </mxCell>
                <mxCell id="15" value="" style="shape=flexArrow;endArrow=classic;html=1;" edge="1" parent="1">
                    <mxGeometry width="50" height="50" relative="1" as="geometry">
                        <mxPoint x="400" y="259.6999999999999" as="sourcePoint"/>
                        <mxPoint x="540" y="259.6999999999999" as="targetPoint"/>
                    </mxGeometry>
                </mxCell>
                <mxCell id="16" value="2. Frontend sends File to &lt;br&gt;Backend via POST request" style="edgeLabel;html=1;align=center;verticalAlign=middle;resizable=0;points=[];" vertex="1" connectable="0" parent="15">
                    <mxGeometry x="0.1969" relative="1" as="geometry">
                        <mxPoint x="-24" y="-30" as="offset"/>
                    </mxGeometry>
                </mxCell>
                <mxCell id="19" value="" style="shape=flexArrow;endArrow=classic;html=1;" edge="1" parent="1">
                    <mxGeometry width="50" height="50" relative="1" as="geometry">
                        <mxPoint x="720" y="519.9999999999998" as="sourcePoint"/>
                        <mxPoint x="970" y="530" as="targetPoint"/>
                    </mxGeometry>
                </mxCell>
                <mxCell id="20" value="3. Backend Creates a new Empty&lt;br&gt;File Instance&lt;br&gt;In order to get a UNIQUE fileId." style="edgeLabel;html=1;align=center;verticalAlign=middle;resizable=0;points=[];" vertex="1" connectable="0" parent="19">
                    <mxGeometry x="0.1969" relative="1" as="geometry">
                        <mxPoint x="-24" y="-30" as="offset"/>
                    </mxGeometry>
                </mxCell>
                <mxCell id="21" value="" style="shape=flexArrow;endArrow=classic;html=1;" edge="1" parent="1">
                    <mxGeometry width="50" height="50" relative="1" as="geometry">
                        <mxPoint x="980" y="615" as="sourcePoint"/>
                        <mxPoint x="730" y="585" as="targetPoint"/>
                    </mxGeometry>
                </mxCell>
                <mxCell id="22" value="4. File instance is Created.&lt;br&gt;Returns the ID of the new Empty File." style="edgeLabel;html=1;align=center;verticalAlign=middle;resizable=0;points=[];" vertex="1" connectable="0" parent="21">
                    <mxGeometry x="0.1969" relative="1" as="geometry">
                        <mxPoint x="-24" y="-30" as="offset"/>
                    </mxGeometry>
                </mxCell>
                <mxCell id="23" value="" style="shape=flexArrow;endArrow=classic;html=1;exitX=1.037;exitY=0.371;exitDx=0;exitDy=0;exitPerimeter=0;" edge="1" parent="1" source="9">
                    <mxGeometry width="50" height="50" relative="1" as="geometry">
                        <mxPoint x="700" y="189.99999999999977" as="sourcePoint"/>
                        <mxPoint x="990" y="280" as="targetPoint"/>
                    </mxGeometry>
                </mxCell>
                <mxCell id="24" value="5. Send the file to the S3,&lt;br&gt;with the FileName being&lt;br&gt;the UNIQUE fileId from MySQl&lt;br&gt;step 4." style="edgeLabel;html=1;align=center;verticalAlign=middle;resizable=0;points=[];" vertex="1" connectable="0" parent="23">
                    <mxGeometry x="0.1969" relative="1" as="geometry">
                        <mxPoint x="-24" y="-30" as="offset"/>
                    </mxGeometry>
                </mxCell>
                <mxCell id="27" value="" style="shape=flexArrow;endArrow=classic;html=1;" edge="1" parent="1">
                    <mxGeometry width="50" height="50" relative="1" as="geometry">
                        <mxPoint x="990" y="230" as="sourcePoint"/>
                        <mxPoint x="700" y="230" as="targetPoint"/>
                    </mxGeometry>
                </mxCell>
                <mxCell id="28" value="6. File S3 URL is sent to backend" style="edgeLabel;html=1;align=center;verticalAlign=middle;resizable=0;points=[];" vertex="1" connectable="0" parent="27">
                    <mxGeometry x="0.1969" relative="1" as="geometry">
                        <mxPoint x="-24" y="-30" as="offset"/>
                    </mxGeometry>
                </mxCell>
                <mxCell id="29" value="" style="shape=flexArrow;endArrow=classic;html=1;" edge="1" parent="1">
                    <mxGeometry width="50" height="50" relative="1" as="geometry">
                        <mxPoint x="700" y="660" as="sourcePoint"/>
                        <mxPoint x="970" y="670" as="targetPoint"/>
                    </mxGeometry>
                </mxCell>
                <mxCell id="30" value="7. S3 URL is sent to the File Instance to store the S3 Path." style="edgeLabel;html=1;align=center;verticalAlign=middle;resizable=0;points=[];" vertex="1" connectable="0" parent="29">
                    <mxGeometry x="0.1969" relative="1" as="geometry">
                        <mxPoint x="-24" y="-30" as="offset"/>
                    </mxGeometry>
                </mxCell>
                <mxCell id="31" value="" style="shape=flexArrow;endArrow=classic;html=1;" edge="1" parent="1">
                    <mxGeometry width="50" height="50" relative="1" as="geometry">
                        <mxPoint x="560" y="440" as="sourcePoint"/>
                        <mxPoint x="380" y="440" as="targetPoint"/>
                    </mxGeometry>
                </mxCell>
                <mxCell id="32" value="8. S3 URL is sent to be rendered." style="edgeLabel;html=1;align=center;verticalAlign=middle;resizable=0;points=[];" vertex="1" connectable="0" parent="31">
                    <mxGeometry x="0.1969" relative="1" as="geometry">
                        <mxPoint x="-24" y="-30" as="offset"/>
                    </mxGeometry>
                </mxCell>
            </root>
        </mxGraphModel>
    </diagram>
</mxfile>